HIERARCHY
ROOT Hips
{
	OFFSET 0.000000 0.000000 0.000000
	CHANNELS 6 Xposition Yposition Zposition Zrotation Yrotation Xrotation 
	JOINT LeftUpLeg_virtual
	{
		OFFSET 0.000000 0.000000 0.000000
		CHANNELS 3 Zrotation Yrotation Xrotation
		JOINT LeftUpLeg
		{
			OFFSET 8.479694 -4.795517 -0.379053
			CHANNELS 3 Zrotation Yrotation Xrotation
			JOINT LeftLeg
			{
				OFFSET 0.485052 -32.551468 0.112863
				CHANNELS 3 Zrotation Yrotation Xrotation
				JOINT LeftFoot
				{
					OFFSET 0.438033 -32.635670 -3.012641
					CHANNELS 3 Zrotation Yrotation Xrotation
					JOINT LeftToeBase
					{
						OFFSET 0.970169 -13.225353 11.864223
						CHANNELS 3 Zrotation Yrotation Xrotation
						End Site
						{
							OFFSET 0.000000 0.000000 0.000000
						}
					}
				}
			}
		}
	}
	JOINT RightUpLeg_virtual
	{
		OFFSET 0.000000 0.000000 0.000000
		CHANNELS 3 Zrotation Yrotation Xrotation
		JOINT RightUpLeg
		{
			OFFSET -8.479694 -4.795517 -0.379053
			CHANNELS 3 Zrotation Yrotation Xrotation
			JOINT RightLeg
			{
				OFFSET -0.484100 -32.551483 0.112903
				CHANNELS 3 Zrotation Yrotation Xrotation
				JOINT RightFoot
				{
					OFFSET -0.438985 -32.635651 -3.012681
					CHANNELS 3 Zrotation Yrotation Xrotation
					JOINT RightToeBase
					{
						OFFSET -0.970169 -13.225354 11.864223
						CHANNELS 3 Zrotation Yrotation Xrotation
						End Site
						{
							OFFSET 0.000000 0.000000 0.000000
						}
					}
				}
			}
		}
	}
	JOINT Spine_virtual
	{
		OFFSET 0.000000 0.000000 0.000000
		CHANNELS 3 Zrotation Yrotation Xrotation
		JOINT Spine
		{
			OFFSET 0.000000 7.722015 1.166203
			CHANNELS 3 Zrotation Yrotation Xrotation
			JOINT Spine1
			{
				OFFSET 0.000000 12.024086 0.248766
				CHANNELS 3 Zrotation Yrotation Xrotation
				JOINT Spine2
				{
					OFFSET -0.000000 11.503036 -0.491240
					CHANNELS 3 Zrotation Yrotation Xrotation
					JOINT Neck_virtual
					{
						OFFSET 0.000000 0.000000 0.000000
						CHANNELS 3 Zrotation Yrotation Xrotation
						JOINT Neck
						{
							OFFSET 0.000000 18.430687 -3.123054
							CHANNELS 3 Zrotation Yrotation Xrotation
							JOINT Head
							{
								OFFSET -0.000000 9.051071 1.034021
								CHANNELS 3 Zrotation Yrotation Xrotation
								End Site
								{
									OFFSET 0.000000 0.000000 0.000000
								}
							}
						}
					}
					JOINT LeftShoulder_virtual
					{
						OFFSET 0.000000 0.000000 0.000000
						CHANNELS 3 Zrotation Yrotation Xrotation
						JOINT LeftShoulder
						{
							OFFSET 6.197824 13.665230 -4.064723
							CHANNELS 3 Zrotation Yrotation Xrotation
							JOINT LeftArm
							{
								OFFSET 7.778132 -0.187073 -1.709282
								CHANNELS 3 Zrotation Yrotation Xrotation
								JOINT LeftForeArm
								{
									OFFSET 21.954697 0.000000 -2.041093
									CHANNELS 3 Zrotation Yrotation Xrotation
									JOINT LeftHand
									{
										OFFSET 22.992908 0.000000 -0.870901
										CHANNELS 3 Zrotation Yrotation Xrotation
										End Site
										{
											OFFSET 0.000000 0.000000 0.000000
										}
									}
								}
							}
						}
					}
					JOINT RightShoulder_virtual
					{
						OFFSET 0.000000 0.000000 0.000000
						CHANNELS 3 Zrotation Yrotation Xrotation
						JOINT RightShoulder
						{
							OFFSET -6.197824 13.665230 -4.064723
							CHANNELS 3 Zrotation Yrotation Xrotation
							JOINT RightArm
							{
								OFFSET -7.778132 -0.187073 -1.709282
								CHANNELS 3 Zrotation Yrotation Xrotation
								JOINT RightForeArm
								{
									OFFSET -21.954697 0.000000 -2.041093
									CHANNELS 3 Zrotation Yrotation Xrotation
									JOINT RightHand
									{
										OFFSET -22.992908 0.000000 -0.870901
										CHANNELS 3 Zrotation Yrotation Xrotation
										End Site
										{
											OFFSET 0.000000 0.000000 0.000000
										}
									}
								}
							}
						}
					}
				}
			}
		}
	}
}
MOTION
Frames: 7
Frame Time: 0.033333
48.822716 80.542694 24.617346 -179.912059 15.201530 179.864877 -6.012278 4.921896 5.784587 -0.331526 -4.775271 -24.791744 7.554235 5.406608 34.300657 0.278084 -2.823666 -11.391848 0.000000 0.000000 0.000000 -1.342581 3.275206 5.800505 -4.538883 1.391340 -33.140788 -1.082848 4.517710 32.114487 10.105087 7.345124 -2.817736 0.000000 0.000000 0.000000 -1.553200 6.334278 -7.787801 1.978468 -1.376626 2.312405 -1.499046 -1.066306 10.409197 0.011883 -0.178613 -0.005632 -1.908383 0.606608 11.715300 1.454886 -0.486405 -6.740350 0.000000 0.000000 0.000000 -0.344055 0.699846 9.117611 -1.815930 -12.586619 1.027919 -55.128373 -35.101667 19.932585 -131.490485 -83.165941 149.474838 0.000000 0.000000 0.000000 -4.778353 2.816437 8.174327 26.385224 1.711678 -1.538321 51.844254 15.820853 5.015775 -155.185928 84.657012 -163.985575 0.000000 0.000000 0.000000 
49.545502 80.465866 24.187737 -179.990361 14.495253 179.929135 -5.666186 5.084122 5.934376 -0.143956 -5.571891 -24.611238 7.413679 5.124885 34.508516 -0.316999 -3.038643 -12.050891 0.000000 0.000000 0.000000 -1.255366 4.249488 5.791650 -4.625740 1.554987 -33.093796 -1.486818 4.411665 31.439613 9.157233 6.579300 -1.998075 0.000000 0.000000 0.000000 -1.241062 6.568088 -7.648045 2.067197 -1.577345 2.195467 -1.346753 -1.034065 10.256194 -0.039475 -0.071333 -0.010318 -1.773510 0.533579 11.662966 1.283821 -0.596909 -7.034184 0.000000 0.000000 0.000000 -0.177114 0.776053 9.075102 -2.028685 -12.856162 0.993163 -53.994510 -35.441551 20.531463 -122.174667 -83.912631 139.326433 0.000000 0.000000 0.000000 -4.630581 2.877443 8.258804 26.320757 1.751448 -1.647172 48.995426 14.277072 2.682171 -136.178003 86.685954 -144.486095 0.000000 0.000000 0.000000 
50.488411 80.391777 23.620207 179.887758 13.542543 179.945336 -5.340554 4.851014 5.995168 0.260766 -6.179646 -24.355275 7.294166 4.961630 35.093287 -0.846200 -3.318756 -12.612255 0.000000 0.000000 0.000000 -1.122208 4.720961 5.928887 -4.594499 1.887076 -33.084999 -2.061538 3.917890 32.361877 7.652284 5.219704 -1.768287 0.000000 0.000000 0.000000 -0.991670 6.709104 -7.526142 2.083331 -1.843716 2.100086 -1.311441 -1.032211 10.143968 -0.021132 -0.069117 -0.025778 -1.682621 0.703154 11.641403 1.220000 -1.087399 -7.375815 0.000000 0.000000 0.000000 -0.028888 0.794603 9.104078 -2.141872 -13.067380 0.871954 -52.773597 -34.918253 21.165097 -100.563416 -84.724262 116.938931 0.000000 0.000000 0.000000 -4.526091 3.004492 8.295639 26.102615 1.566258 -1.678282 46.510750 10.637566 2.304059 -80.638409 87.594089 -88.379014 0.000000 0.000000 0.000000 
51.633461 80.349892 22.964127 179.862199 12.503880 179.885449 -5.067314 4.322895 6.208922 0.879559 -6.583969 -23.971170 7.177520 4.796930 35.521027 -1.294581 -3.652871 -13.144559 0.000000 0.000000 0.000000 -1.002368 4.843590 6.044784 -4.123683 1.831617 -32.698083 -2.822712 2.671849 33.702640 6.268591 3.939560 -2.154667 0.000000 0.000000 0.000000 -0.765057 6.807180 -7.401451 2.149827 -2.136802 2.070519 -1.247778 -1.058174 10.130214 0.023112 -0.046124 -0.004817 -1.705804 0.601919 11.601518 1.149520 -1.411362 -7.704964 0.000000 0.000000 0.000000 -0.022898 0.803876 9.062773 -2.200558 -13.285834 0.719386 -51.633519 -33.583630 22.179521 -65.560165 -84.432852 81.265946 0.000000 0.000000 0.000000 -4.448775 2.907819 8.478578 25.666389 1.208374 -1.652326 44.519583 5.063325 4.393275 -38.028205 86.338632 -44.849423 0.000000 0.000000 0.000000 
52.968136 80.337341 22.249489 179.760730 11.790739 179.858005 -4.696066 4.365118 6.569310 1.680479 -7.350294 -23.611855 6.916145 4.746029 35.471051 -1.708474 -4.068120 -13.309117 0.000000 0.000000 0.000000 -0.850206 4.804433 6.111060 -3.231380 1.001242 -32.171236 -3.698014 1.398421 34.891639 5.079045 2.935796 -2.794991 0.000000 0.000000 0.000000 -0.599433 6.890656 -7.335912 2.215657 -2.428364 2.050543 -1.230406 -1.057063 10.180837 0.003425 -0.028245 0.021814 -1.710243 0.708457 11.639913 1.192674 -1.758474 -8.000286 0.000000 0.000000 0.000000 -0.022071 0.911018 9.176258 -2.030787 -13.429282 0.730724 -50.819821 -31.450173 23.787730 -34.415452 -81.951212 49.600721 0.000000 0.000000 0.000000 -4.456029 2.983188 8.614453 25.159796 0.716310 -1.634630 42.967948 -1.999840 9.219753 -26.677249 84.731099 -32.569276 0.000000 0.000000 0.000000 
54.432911 80.347176 21.497162 -179.852200 10.351920 -179.893331 -4.329940 4.262780 6.829765 2.994254 -8.115258 -23.501142 6.642448 4.150867 35.488946 -2.319536 -4.716926 -13.235512 0.000000 0.000000 0.000000 -1.345814 5.431027 6.635132 -4.433387 5.113328 -31.256093 -1.422705 6.435099 35.137160 8.254100 6.922535 -5.466807 0.000000 0.000000 0.000000 -0.211437 6.796672 -7.390482 2.496177 -3.037540 1.954461 -1.163990 -1.270601 10.238504 -0.048727 -0.033391 0.025312 -1.758003 0.536481 11.807515 1.175762 -2.002824 -8.255271 0.000000 0.000000 0.000000 -0.005637 0.856414 9.345767 -1.942372 -13.414809 0.724727 -50.163590 -28.553056 25.245614 -19.247929 -77.562829 34.073304 0.000000 0.000000 0.000000 -4.492308 2.992343 8.842965 24.534639 -0.040537 -1.480822 41.484694 -9.453264 15.428764 -21.896746 83.738563 -26.861141 0.000000 0.000000 0.000000 
55.960979 80.378807 20.752567 -179.571943 8.980554 -179.754965 -3.931809 4.481603 7.116490 4.224230 -8.761141 -23.416629 6.302010 3.337692 35.369940 -3.011284 -5.398996 -12.860976 0.000000 0.000000 0.000000 -1.436747 6.245762 7.161228 -4.476924 6.757205 -30.315368 -0.914762 7.513361 35.560902 9.718156 9.253205 -9.236417 0.000000 0.000000 0.000000 0.115274 7.048465 -7.333666 2.805585 -3.528661 1.890755 -1.063766 -1.412999 10.315121 -0.036632 -0.286686 0.036202 -1.829874 0.431297 12.025525 1.209100 -2.259381 -8.475390 0.000000 0.000000 0.000000 -0.098225 0.773580 9.732419 -1.754601 -13.565452 0.653606 -49.775868 -24.974628 26.194812 -11.564396 -72.241893 26.195422 0.000000 0.000000 0.000000 -4.598226 2.795215 9.048435 24.014996 -0.942477 -1.350412 40.033897 -16.536340 22.379545 -22.172071 83.346777 -26.279506 0.000000 0.000000 0.000000 
